<?xml version="1.0" standalone="no"?>
<!DOCTYPE svg PUBLIC "-//W3C//DTD SVG 20010904//EN"
 "http://www.w3.org/TR/2001/REC-SVG-20010904/DTD/svg10.dtd">
<svg version="1.0" xmlns="http://www.w3.org/2000/svg"
 width="1408.000000pt" height="736.000000pt" viewBox="0 0 1408.000000 736.000000"
 preserveAspectRatio="xMidYMid meet">

<g transform="translate(0.000000,736.000000) scale(0.100000,-0.100000)"
fill="#000000" stroke="none">
<path d="M5615 4438 c-204 -214 -231 -262 -245 -443 -9 -105 -12 -114 -64
-220 -30 -60 -96 -186 -147 -280 -50 -93 -94 -175 -96 -182 -4 -9 73 -13 324
-15 l328 -3 57 -28 c31 -15 73 -46 93 -68 24 -27 94 -158 203 -380 l165 -339
269 0 268 0 -15 24 c-9 14 -29 26 -49 29 -56 9 -143 57 -197 109 -93 89 -129
204 -129 415 l0 112 -165 331 c-91 181 -165 332 -165 334 0 2 -71 149 -159
328 -87 178 -162 334 -165 346 -4 12 -11 22 -16 22 -4 0 -47 -41 -95 -92z"/>
<path d="M8300 4238 c0 -19 -2 -20 -11 -8 -12 18 -7 -53 6 -84 6 -14 5 -17 -3
-12 -19 12 -26 -23 -9 -42 21 -23 67 -122 67 -144 0 -17 23 -18 345 -18 l345
0 0 71 0 70 83 -57 c45 -32 108 -78 140 -102 l58 -44 -133 -98 c-73 -55 -136
-99 -140 -100 -5 0 -8 29 -8 65 l0 65 -345 0 -344 0 -11 -38 c-5 -21 -28 -64
-50 -95 l-39 -57 90 0 90 0 -3 -284 c-3 -269 -4 -286 -24 -313 -40 -54 -75
-64 -214 -61 -183 5 -213 21 -391 213 -30 33 -58 65 -62 72 -4 7 8 43 27 80
39 76 86 197 136 347 l32 98 -21 43 c-27 54 -27 95 1 130 26 33 81 58 111 50
69 -19 97 -56 97 -126 0 -35 -6 -47 -37 -77 -34 -32 -35 -35 -13 -28 97 29
110 26 114 -27 1 -20 4 -22 19 -13 9 6 17 16 17 23 0 7 4 13 9 13 5 0 17 20
27 45 41 109 -17 248 -130 308 -32 17 -58 22 -121 22 -69 0 -86 -4 -125 -27
-25 -14 -55 -37 -67 -50 -56 -61 -88 -181 -65 -247 10 -27 6 -47 -29 -147 -46
-135 -85 -216 -157 -331 -29 -46 -52 -87 -52 -92 0 -15 248 -294 298 -335 122
-100 230 -129 457 -124 142 3 165 6 201 25 55 29 121 106 136 157 8 26 13 126
14 276 0 129 2 268 2 308 l2 72 35 0 35 0 0 -320 c0 -298 -1 -323 -21 -374
-28 -77 -96 -148 -177 -188 l-67 -33 -180 0 c-203 1 -263 12 -375 71 -93 49
-145 97 -282 262 -112 134 -122 144 -134 126 -59 -85 -134 -157 -194 -187 -63
-31 -68 -32 -221 -35 l-157 -4 -39 35 -38 35 -3 117 c-5 167 11 204 133 296
30 23 55 45 55 49 0 5 -21 34 -47 67 -26 32 -48 60 -49 62 -9 11 -186 -146
-213 -188 -56 -87 -63 -123 -59 -299 3 -146 5 -161 29 -207 29 -57 105 -120
155 -130 67 -12 264 -15 353 -5 111 12 184 39 253 91 29 21 56 38 59 37 4 -2
38 -41 76 -88 109 -133 250 -218 429 -261 77 -18 112 -20 338 -17 l251 3 77
37 c118 56 191 142 222 263 13 48 16 126 16 422 l0 363 384 0 384 0 50 118
c28 64 74 176 102 247 29 72 54 135 56 140 3 7 -222 10 -663 9 -368 -1 -712 1
-765 4 -98 5 -98 5 -98 31 0 20 2 23 10 11 8 -13 10 -12 10 3 0 9 -4 17 -10
17 -5 0 -10 5 -10 11 0 5 6 7 13 3 8 -6 8 -3 -2 9 -7 9 -11 24 -7 32 4 10 -1
15 -14 15 -14 0 -20 -7 -20 -22z"/>
<path d="M8370 4251 c0 -5 11 -8 25 -8 14 0 28 3 31 8 3 5 -9 9 -25 9 -17 0
-31 -4 -31 -9z"/>
<path d="M4480 3900 c-16 -11 -8 -13 30 -10 35 3 17 -13 -20 -17 -17 -1 -30 2
-30 8 0 6 -7 3 -16 -5 -8 -9 -23 -16 -33 -16 -10 0 -28 -9 -41 -20 l-23 -20
26 0 c14 0 28 -4 32 -10 4 -7 99 40 133 65 1 1 0 10 -4 19 -7 18 -31 21 -54 6z"/>
<path d="M4371 3876 c-13 -7 -19 -16 -14 -19 6 -4 21 2 33 13 26 23 17 26 -19
6z"/>
<path d="M4255 3750 c-3 -5 -1 -10 4 -10 6 0 11 5 11 10 0 6 -2 10 -4 10 -3 0
-8 -4 -11 -10z"/>
<path d="M4092 3721 c-17 -4 -33 -27 -57 -78 -21 -46 -28 -70 -19 -66 8 3 12
8 10 12 -3 4 0 13 5 21 8 11 12 12 15 3 5 -11 57 13 149 69 l30 18 -42 0 c-56
0 -58 0 -56 -11 2 -4 -4 -6 -13 -2 -9 3 -12 9 -7 12 7 5 17 33 11 30 -2 -1
-13 -4 -26 -8z"/>
<path d="M4989 3708 c-5 -10 -7 -24 -3 -30 4 -6 3 -8 -3 -5 -5 3 -25 -24 -45
-61 -46 -86 -54 -112 -35 -112 9 0 18 -6 20 -12 4 -10 8 -9 16 2 9 12 11 11
11 -7 0 -12 -4 -25 -10 -28 -13 -8 -13 -25 -1 -25 5 0 13 10 17 23 4 12 10 24
14 27 4 3 34 60 68 126 l60 121 -49 0 c-39 0 -52 -4 -60 -19z m25 -43 c-4 -8
-10 -15 -15 -15 -4 0 -6 7 -3 15 4 8 10 15 15 15 4 0 6 -7 3 -15z m26 -29
c-14 -14 -24 0 -16 21 6 15 8 15 16 3 6 -9 5 -19 0 -24z"/>
<path d="M4849 3428 c-9 -18 -9 -20 4 -15 22 8 39 -15 22 -30 -9 -8 -16 -9
-20 -3 -13 21 -35 9 -55 -30 l-20 -40 54 0 c51 0 55 2 65 30 6 20 7 30 0 30
-6 0 -7 5 -4 10 4 6 10 8 15 5 4 -3 10 2 13 10 4 10 1 12 -10 8 -12 -5 -14 -1
-8 16 6 20 5 22 -13 12 -12 -7 -23 -7 -26 -2 -4 5 0 12 6 14 10 4 10 6 1 6 -7
1 -17 -9 -24 -21z"/>
</g>
</svg>
